<svg width="117" height="100" viewBox="0 0 117 100" fill="none" xmlns="http://www.w3.org/2000/svg">
<path d="M71.9274 0.191268C74.7967 0.965065 76.5028 3.90549 75.7273 6.77959L51.6758 96.0205C51.0333 98.4192 48.8619 100 46.48 100C46.0147 100 45.5383 99.9447 45.073 99.8121C42.2037 99.0383 40.4976 96.0979 41.2731 93.2238L65.3246 3.98287C66.1001 1.10877 69.0802 -0.593583 71.9274 0.191268ZM32.0004 23.3278C34.1053 25.4281 34.1053 28.8328 32.0004 30.9331L12.9856 49.9052L32.0225 69.1034C34.1164 71.2148 34.0942 74.6195 31.9782 76.7087C30.9258 77.7368 29.5631 78.2563 28.1894 78.2563C26.8046 78.2563 25.4198 77.7257 24.3562 76.6645L1.55663 53.6717C0.448302 52.5541 -0.067149 51.0741 0.0069915 49.6186C0.0690331 48.3304 0.593143 47.0609 1.57879 46.0774L24.3784 23.3278C26.4833 21.2385 29.8955 21.2385 32.0004 23.3278ZM92.3562 23.2946L115.399 46.0443C116.281 46.9147 116.797 48.0134 116.949 49.1519C117.172 50.7626 116.663 52.4551 115.422 53.6938L92.3783 76.6866C91.3258 77.7257 89.941 78.2563 88.5673 78.2563C87.1936 78.2563 85.8087 77.7257 84.7563 76.6866C82.6514 74.5863 82.6514 71.1816 84.7563 69.0813L103.978 49.8994L84.7784 30.9442C82.6624 28.8549 82.6514 25.4502 84.7341 23.3388C86.8169 21.2275 90.2291 21.2054 92.3562 23.2946Z" fill="url(#paint0_linear)"/>
<defs>
<linearGradient id="paint0_linear" x1="58.5" y1="0" x2="58.5" y2="100" gradientUnits="userSpaceOnUse">
<stop stop-color="#FF9900"/>
<stop offset="1" stop-color="#50D8D7"/>
</linearGradient>
</defs>
</svg>
