<svg width="105" height="80" viewBox="0 0 105 80" fill="none" xmlns="http://www.w3.org/2000/svg">
<path d="M93.7664 0.457142C91.4182 0.430955 89.122 1.14667 87.2069 2.50169C85.2919 3.8567 83.8562 5.78144 83.1059 8H64.0775V0H41.1518V8H21.7795C21.0748 5.7574 19.6735 3.79609 17.778 2.39923C15.8825 1.00237 13.5907 0.242236 11.2336 0.228571C8.25428 0.228571 5.39697 1.40857 3.29025 3.50898C1.18354 5.60938 0 8.45815 0 11.4286C0 14.399 1.18354 17.2478 3.29025 19.3482C5.39697 21.4486 8.25428 22.6286 11.2336 22.6286C13.5907 22.6149 15.8825 21.8548 17.778 20.4579C19.6735 19.0611 21.0748 17.0997 21.7795 14.8571H35.9935C28.1987 20.2286 22.8111 29.0286 22.8111 38.8571V57.1429H15.9334V80H38.8592V57.1429H29.6889V38.8571C29.7437 34.9511 30.8327 31.1288 32.8457 27.7772C34.8586 24.4257 37.724 21.6639 41.1518 19.7714V22.8571H64.0775V19.7714C70.9552 23.6571 74.3941 30.8571 74.3941 38.8571V57.1429H66.3701V80H89.2959V57.1429H81.2718V38.8571C81.3542 34.1613 80.2789 29.5172 78.1403 25.3326C76.0017 21.148 72.8653 17.5508 69.0066 14.8571H83.1059C83.9443 17.3737 85.651 19.512 87.9224 20.8916C90.1938 22.2712 92.8825 22.8026 95.5099 22.3911C98.1374 21.9796 100.533 20.6521 102.271 18.6447C104.009 16.6372 104.976 14.0802 105 11.4286C104.985 9.97275 104.683 8.53413 104.11 7.19486C103.537 5.85559 102.706 4.64189 101.662 3.62309C100.619 2.60428 99.3851 1.80031 98.0303 1.2571C96.6754 0.713883 95.2266 0.442057 93.7664 0.457142V0.457142Z" fill="url(#paint0_linear)"/>
<defs>
<linearGradient id="paint0_linear" x1="52.5" y1="0" x2="52.5" y2="80" gradientUnits="userSpaceOnUse">
<stop stop-color="#FF9900"/>
<stop offset="1" stop-color="#50D8D7"/>
</linearGradient>
</defs>
</svg>
