<svg width="90" height="90" viewBox="0 0 90 90" fill="none" xmlns="http://www.w3.org/2000/svg">
<path fill-rule="evenodd" clip-rule="evenodd" d="M68.3053 39.4105L63.7579 34.8631L66.8842 31.7368L71.4316 36.2842L79.0105 28.7052L74.4632 24.1579L77.4948 21.1263L82.0421 25.6737L90 17.7158L72.2842 0L45.6632 26.6211L63.379 44.3368L68.3053 39.4105ZM8.43157 21.4105L21.4105 8.43157L15.1579 2.27367C12.6 -0.378959 8.33684 -0.378959 5.77895 2.27367L2.27367 5.77895C-0.378959 8.43158 -0.378959 12.6 2.27367 15.2526L8.43157 21.4105ZM85.7369 84.0316L80.5263 69.3474L69.3474 80.5263L84.0316 85.7368C85.103 86.1489 85.6725 86.0591 85.8649 86.0288C85.8937 86.0242 85.914 86.021 85.9263 86.021C86.0211 85.9263 86.2105 85.2632 85.7369 84.0316ZM42.8211 29.8421L61.7684 48.8842L78.5368 65.5579L65.5579 78.5369L48.8842 61.8632H48.8841C48.7895 61.8632 48.7895 61.8632 48.7895 61.7685C48.7895 61.6737 48.6947 61.6737 48.6947 61.6737L11.2737 24.2527L24.2526 11.2737L42.6316 29.6526L42.7263 29.7474C42.7263 29.8421 42.8211 29.8421 42.8211 29.8421ZM17.7158 90L0 72.2842L26.6211 45.6632L44.3368 63.3789L39.4105 68.3053L34.8632 63.7579L31.7368 66.8842L36.2842 71.4316L28.7053 79.0105L24.1579 74.4632L21.1263 77.4947L25.6737 82.0421L17.7158 90Z" fill="url(#paint0_linear)"/>
<defs>
<linearGradient id="paint0_linear" x1="45" y1="0" x2="45" y2="90" gradientUnits="userSpaceOnUse">
<stop stop-color="#FF9900"/>
<stop offset="1" stop-color="#50D8D7"/>
</linearGradient>
</defs>
</svg>
